<svg width="56" height="56" viewBox="0 0 80 80" fill="none" xmlns="http://www.w3.org/2000/svg">
<rect width="80" height="80" rx="12" fill="#94dbf8"/>
<path d="M16.7539 50.2988C16.1783 50.2988 15.6471 50.2269 15.1601 50.083C14.6731 49.9502 14.2194 49.7731 13.7988 49.5518C13.3782 49.3193 12.9853 49.0592 12.6201 48.7715C12.2548 48.4727 11.9117 48.1738 11.5908 47.875C10.9378 48.694 10.2571 49.2972 9.54879 49.6846C8.85152 50.0609 8.09339 50.249 7.27438 50.249C6.97555 50.249 6.67672 50.1992 6.37789 50.0996C6.068 50.0111 5.7913 49.8727 5.54781 49.6846C5.29326 49.4854 5.0885 49.2363 4.93356 48.9375C4.77861 48.6276 4.70113 48.2624 4.70113 47.8418C4.70113 47.4102 4.79521 46.9951 4.98336 46.5967C5.16044 46.1982 5.415 45.8496 5.74703 45.5508C6.068 45.2409 6.45537 44.9974 6.90914 44.8203C7.35185 44.6432 7.83883 44.5547 8.37008 44.5547C8.83492 44.5547 9.2721 44.6654 9.6816 44.8867C10.1022 45.1081 10.5172 45.3903 10.9267 45.7334C11.2588 45.0693 11.6074 44.3057 11.9726 43.4424C12.3379 42.568 12.7529 41.583 13.2177 40.4873L15.3759 35.3408H13.4004C12.847 35.3408 12.2991 35.2855 11.7568 35.1748C11.2145 35.0531 10.733 34.8704 10.3125 34.627C9.89189 34.3724 9.54879 34.057 9.28316 33.6807C9.02861 33.3044 8.90133 32.8506 8.90133 32.3193C8.90133 31.5667 9.15035 30.8252 9.6484 30.0947C10.1464 29.3532 10.8492 28.6947 11.7568 28.1191C12.6754 27.5436 13.7822 27.0788 15.0771 26.7246C16.3831 26.3704 17.8385 26.1934 19.4433 26.1934C20.6497 26.1934 21.8229 26.4092 22.9629 26.8408C24.1028 27.2725 25.1155 27.9033 26.0009 28.7334C26.8974 29.5635 27.6113 30.5817 28.1425 31.7881C28.6849 32.9834 28.956 34.3503 28.956 35.8887C28.956 36.9622 28.8121 38.0635 28.5244 39.1924C28.2366 40.3213 27.8326 41.417 27.3125 42.4795C26.7923 43.542 26.1614 44.5492 25.4199 45.501C24.6783 46.4528 23.8538 47.2829 22.9463 47.9912C22.0498 48.6995 21.0758 49.264 20.0244 49.6846C18.984 50.0941 17.8938 50.2988 16.7539 50.2988ZM17.5009 35.3408L14.2802 43.0273C13.6162 44.61 12.9466 45.9105 12.2714 46.9287C12.5924 47.2275 12.9189 47.5208 13.2509 47.8086C13.583 48.0853 13.9316 48.3343 14.2968 48.5557C14.6621 48.777 15.0439 48.9541 15.4423 49.0869C15.8408 49.2197 16.2614 49.2861 16.7041 49.2861C17.6559 49.2861 18.5579 49.0869 19.4101 48.6885C20.2734 48.279 21.0703 47.7256 21.8007 47.0283C22.5423 46.3311 23.2119 45.5231 23.8095 44.6045C24.4072 43.6748 24.9108 42.6953 25.3203 41.666C25.7408 40.6257 26.0618 39.5576 26.2832 38.4619C26.5156 37.3662 26.6318 36.3037 26.6318 35.2744C26.6318 34.1012 26.4824 33 26.1836 31.9707C25.8958 30.9414 25.4476 30.0449 24.8388 29.2812C24.2301 28.5176 23.4554 27.9144 22.5146 27.4717C21.5849 27.029 20.4726 26.8076 19.1777 26.8076C17.9049 26.8076 16.7483 26.957 15.708 27.2559C14.6676 27.5436 13.7767 27.9199 13.0351 28.3848C12.3046 28.8496 11.7402 29.3753 11.3418 29.9619C10.9433 30.5485 10.7441 31.1406 10.7441 31.7383C10.7441 32.0482 10.7939 32.3359 10.8935 32.6016C10.9931 32.8561 11.1647 33.0775 11.4082 33.2656C11.6627 33.4427 11.9948 33.5866 12.4043 33.6973C12.8138 33.7969 13.3339 33.8467 13.9648 33.8467H15.9902L18.4306 28.0361H20.5556L18.1152 33.8467H23.4609L22.8466 35.3408H17.5009ZM7.14156 49.4189C7.47359 49.4189 7.77796 49.3691 8.05465 49.2695C8.34241 49.1589 8.61357 48.9928 8.86813 48.7715C9.13375 48.5501 9.38831 48.2734 9.6318 47.9414C9.88636 47.6094 10.1409 47.2109 10.3955 46.7461C10.0081 46.3919 9.62626 46.0931 9.24996 45.8496C8.88473 45.6061 8.49736 45.4844 8.08785 45.4844C7.66728 45.4844 7.30205 45.5563 6.99215 45.7002C6.67119 45.8441 6.40003 46.0322 6.17867 46.2646C5.95732 46.486 5.7913 46.735 5.68063 47.0117C5.56995 47.2773 5.51461 47.5374 5.51461 47.792C5.51461 48.29 5.65849 48.6885 5.94625 48.9873C6.23401 49.2751 6.63245 49.4189 7.14156 49.4189ZM38.1221 50.2988C37.5465 50.2988 37.0153 50.2269 36.5283 50.083C36.0413 49.9502 35.5876 49.7731 35.167 49.5518C34.7464 49.3193 34.3535 49.0592 33.9883 48.7715C33.623 48.4727 33.2799 48.1738 32.959 47.875C32.306 48.694 31.6253 49.2972 30.917 49.6846C30.2197 50.0609 29.4616 50.249 28.6426 50.249C28.3438 50.249 28.0449 50.1992 27.7461 50.0996C27.4362 50.0111 27.1595 49.8727 26.916 49.6846C26.6615 49.4854 26.4567 49.2363 26.3018 48.9375C26.1468 48.6276 26.0693 48.2624 26.0693 47.8418C26.0693 47.4102 26.1634 46.9951 26.3516 46.5967C26.5286 46.1982 26.7832 45.8496 27.1152 45.5508C27.4362 45.2409 27.8236 44.9974 28.2773 44.8203C28.7201 44.6432 29.207 44.5547 29.7383 44.5547C30.2031 44.5547 30.6403 44.6654 31.0498 44.8867C31.4704 45.1081 31.8854 45.3903 32.2949 45.7334C32.627 45.0693 32.9756 44.3057 33.3408 43.4424C33.7061 42.568 34.1211 41.583 34.5859 40.4873L36.7441 35.3408H34.7686C34.2152 35.3408 33.6673 35.2855 33.125 35.1748C32.5827 35.0531 32.1012 34.8704 31.6807 34.627C31.2601 34.3724 30.917 34.057 30.6514 33.6807C30.3968 33.3044 30.2695 32.8506 30.2695 32.3193C30.2695 31.5667 30.5186 30.8252 31.0166 30.0947C31.5146 29.3532 32.2174 28.6947 33.125 28.1191C34.0436 27.5436 35.1504 27.0788 36.4453 26.7246C37.7513 26.3704 39.2067 26.1934 40.8115 26.1934C42.0179 26.1934 43.1911 26.4092 44.3311 26.8408C45.471 27.2725 46.4837 27.9033 47.3691 28.7334C48.2656 29.5635 48.9795 30.5817 49.5107 31.7881C50.0531 32.9834 50.3242 34.3503 50.3242 35.8887C50.3242 36.9622 50.1803 38.0635 49.8926 39.1924C49.6048 40.3213 49.2008 41.417 48.6807 42.4795C48.1605 43.542 47.5296 44.5492 46.7881 45.501C46.0465 46.4528 45.222 47.2829 44.3145 47.9912C43.418 48.6995 42.444 49.264 41.3926 49.6846C40.3522 50.0941 39.262 50.2988 38.1221 50.2988ZM38.8691 35.3408L35.6484 43.0273C34.9844 44.61 34.3148 45.9105 33.6396 46.9287C33.9606 47.2275 34.2871 47.5208 34.6191 47.8086C34.9512 48.0853 35.2998 48.3343 35.665 48.5557C36.0303 48.777 36.4121 48.9541 36.8105 49.0869C37.209 49.2197 37.6296 49.2861 38.0723 49.2861C39.0241 49.2861 39.9261 49.0869 40.7783 48.6885C41.6416 48.279 42.4385 47.7256 43.1689 47.0283C43.9105 46.3311 44.5801 45.5231 45.1777 44.6045C45.7754 43.6748 46.279 42.6953 46.6885 41.666C47.109 40.6257 47.43 39.5576 47.6514 38.4619C47.8838 37.3662 48 36.3037 48 35.2744C48 34.1012 47.8506 33 47.5518 31.9707C47.264 30.9414 46.8158 30.0449 46.207 29.2812C45.5983 28.5176 44.8236 27.9144 43.8828 27.4717C42.9531 27.029 41.8408 26.8076 40.5459 26.8076C39.2731 26.8076 38.1165 26.957 37.0762 27.2559C36.0358 27.5436 35.1449 27.9199 34.4033 28.3848C33.6729 28.8496 33.1084 29.3753 32.71 29.9619C32.3115 30.5485 32.1123 31.1406 32.1123 31.7383C32.1123 32.0482 32.1621 32.3359 32.2617 32.6016C32.3613 32.8561 32.5329 33.0775 32.7764 33.2656C33.0309 33.4427 33.363 33.5866 33.7725 33.6973C34.182 33.7969 34.7021 33.8467 35.333 33.8467H37.3584L39.7988 28.0361H41.9238L39.4834 33.8467H44.8291L44.2148 35.3408H38.8691ZM28.5098 49.4189C28.8418 49.4189 29.1462 49.3691 29.4229 49.2695C29.7106 49.1589 29.9818 48.9928 30.2363 48.7715C30.502 48.5501 30.7565 48.2734 31 47.9414C31.2546 47.6094 31.5091 47.2109 31.7637 46.7461C31.3763 46.3919 30.9945 46.0931 30.6182 45.8496C30.2529 45.6061 29.8656 45.4844 29.4561 45.4844C29.0355 45.4844 28.6702 45.5563 28.3604 45.7002C28.0394 45.8441 27.7682 46.0322 27.5469 46.2646C27.3255 46.486 27.1595 46.735 27.0488 47.0117C26.9382 47.2773 26.8828 47.5374 26.8828 47.792C26.8828 48.29 27.0267 48.6885 27.3145 48.9873C27.6022 49.2751 28.0007 49.4189 28.5098 49.4189ZM75.0459 32.3193C73.6182 31.4561 72.2679 30.7477 70.9952 30.1943C69.7224 29.6299 68.516 29.1761 67.376 28.833L58.5274 50H56.3858L65.5332 28.335C64.5371 28.1025 63.6351 27.9476 62.8272 27.8701C62.0192 27.7816 61.2998 27.7373 60.669 27.7373C59.4183 27.7373 58.2396 27.8923 57.1329 28.2021C56.0371 28.501 55.0798 28.8994 54.2608 29.3975C53.4418 29.8955 52.7943 30.4655 52.3184 31.1074C51.8425 31.7383 51.6045 32.3913 51.6045 33.0664C51.6045 33.4538 51.7318 33.7637 51.9864 33.9961C52.2409 34.2174 52.6172 34.3281 53.1153 34.3281H57.3985L56.8672 35.7891H52.6504C52.1413 35.7891 51.6986 35.612 51.3223 35.2578C50.9571 34.8926 50.7745 34.3724 50.7745 33.6973C50.7745 32.9889 50.9239 32.3138 51.2227 31.6719C51.5215 31.0299 51.9421 30.4323 52.4844 29.8789C53.0267 29.3145 53.6742 28.8053 54.4268 28.3516C55.1794 27.8978 56.015 27.516 56.9336 27.2061C57.8523 26.8851 58.8317 26.6361 59.8721 26.459C60.9235 26.2819 62.0137 26.1934 63.1426 26.1934C63.8842 26.1934 64.67 26.2487 65.5 26.3594C66.3301 26.4701 67.2598 26.6803 68.2891 26.9902C69.3184 27.2891 70.4694 27.7096 71.7422 28.252C73.0261 28.7832 74.4815 29.4805 76.1084 30.3438L75.0459 32.3193Z" fill="white"/>
</svg>
